<?xml version="1.0" encoding="utf-8"?>
<!-- Generator: Adobe Illustrator 15.1.0, SVG Export Plug-In . SVG Version: 6.00 Build 0)  -->
<!DOCTYPE svg PUBLIC "-//W3C//DTD SVG 1.1//EN" "http://www.w3.org/Graphics/SVG/1.1/DTD/svg11.dtd">
<svg version="1.1" id="Layer_1" xmlns="http://www.w3.org/2000/svg" xmlns:xlink="http://www.w3.org/1999/xlink" x="0px" y="0px"
	 width="217px" height="33px" viewBox="0 0 217 33" enable-background="new 0 0 217 33" xml:space="preserve">
<g>
	<path fill="#333333" d="M4.898,6.593v11.021c0,1.041,0.123,1.824,0.367,2.35c0.434,0.928,1.285,1.393,2.554,1.393
		c1.625,0,2.737-0.66,3.338-1.98c0.312-0.715,0.467-1.66,0.467-2.834V6.593h4.848v18.284h-4.646v-2.583
		c-0.045,0.056-0.156,0.224-0.334,0.503c-0.179,0.28-0.391,0.526-0.636,0.738c-0.747,0.672-1.469,1.13-2.166,1.375
		c-0.698,0.246-1.514,0.369-2.451,0.369c-2.699,0-4.517-0.973-5.453-2.918C0.262,21.287,0,19.705,0,17.613V6.593H4.898z"/>
	<path fill="#333333" d="M35.864,7.641c1.197,0.99,1.795,2.631,1.795,4.923v12.312h-4.898V13.755c0-0.961-0.128-1.699-0.383-2.214
		c-0.466-0.939-1.354-1.409-2.664-1.409c-1.61,0-2.714,0.688-3.314,2.063c-0.311,0.727-0.466,1.656-0.466,2.785v9.897h-4.781V6.626
		h4.63v2.667c0.612-0.939,1.191-1.616,1.737-2.03c0.98-0.738,2.222-1.107,3.725-1.107C33.127,6.157,34.667,6.652,35.864,7.641z"/>
	<path fill="#333333" d="M47.02,4.412h-4.848V0h4.848V4.412z M42.172,6.593h4.848v18.284h-4.848V6.593z"/>
	<path fill="#333333" d="M49.771,10.166V6.761h2.55v-5.1h4.73v5.1h2.969v3.405h-2.969v9.663c0,0.75,0.095,1.217,0.285,1.4
		c0.19,0.186,0.771,0.277,1.745,0.277c0.145,0,0.299-0.003,0.461-0.009c0.162-0.005,0.321-0.014,0.478-0.024v3.572l-2.265,0.084
		c-2.259,0.078-3.802-0.312-4.63-1.174c-0.537-0.548-0.805-1.393-0.805-2.533V10.166H49.771z"/>
	<path fill="#333333" d="M75.005,6.963c1.275,0.571,2.329,1.473,3.16,2.705c0.749,1.086,1.234,2.347,1.457,3.78
		c0.129,0.84,0.181,2.05,0.158,3.629H66.462c0.074,1.834,0.711,3.12,1.912,3.858c0.73,0.459,1.609,0.688,2.636,0.688
		c1.089,0,1.974-0.279,2.654-0.839c0.372-0.302,0.699-0.722,0.984-1.258h4.881c-0.129,1.085-0.72,2.187-1.772,3.305
		c-1.638,1.778-3.931,2.667-6.879,2.667c-2.434,0-4.581-0.75-6.441-2.25s-2.79-3.939-2.79-7.32c0-3.167,0.839-5.596,2.519-7.286
		c1.679-1.69,3.859-2.535,6.539-2.535C72.297,6.106,73.73,6.392,75.005,6.963z M67.854,11.093c-0.676,0.697-1.1,1.64-1.274,2.831
		h8.237c-0.087-1.269-0.511-2.232-1.273-2.889s-1.708-0.986-2.836-0.986C69.48,10.048,68.529,10.397,67.854,11.093z"/>
	<path fill="#333333" d="M91.893,6.887c0.861,0.486,1.56,1.16,2.097,2.021V0.185h4.848v24.692h-4.646v-2.532
		c-0.683,1.085-1.459,1.873-2.332,2.364c-0.873,0.492-1.958,0.738-3.254,0.738c-2.136,0-3.934-0.863-5.393-2.592
		c-1.46-1.728-2.189-3.944-2.189-6.65c0-3.121,0.719-5.575,2.156-7.365c1.437-1.789,3.357-2.684,5.762-2.684
		C90.048,6.157,91.032,6.399,91.893,6.887z M93.067,19.912c0.705-1.007,1.057-2.31,1.057-3.908c0-2.237-0.565-3.836-1.694-4.798
		c-0.694-0.581-1.499-0.872-2.416-0.872c-1.398,0-2.424,0.528-3.078,1.585c-0.654,1.057-0.981,2.368-0.981,3.934
		c0,1.688,0.333,3.039,0.998,4.052c0.665,1.012,1.674,1.518,3.028,1.518C91.334,21.422,92.363,20.918,93.067,19.912z"/>
	<path fill="#333333" d="M106.361,19.039c0.102,0.851,0.32,1.455,0.657,1.812c0.596,0.637,1.696,0.956,3.304,0.956
		c0.944,0,1.694-0.14,2.25-0.419c0.557-0.279,0.835-0.699,0.835-1.259c0-0.536-0.225-0.944-0.673-1.225
		c-0.448-0.279-2.115-0.76-5.001-1.442c-2.078-0.514-3.542-1.157-4.392-1.929c-0.85-0.76-1.275-1.856-1.275-3.288
		c0-1.689,0.664-3.14,1.992-4.354c1.328-1.213,3.197-1.82,5.607-1.82c2.285,0,4.148,0.456,5.589,1.367
		c1.44,0.912,2.267,2.486,2.48,4.723h-4.781c-0.067-0.615-0.241-1.102-0.521-1.459c-0.527-0.648-1.424-0.973-2.692-0.973
		c-1.043,0-1.785,0.163-2.229,0.486c-0.442,0.325-0.664,0.705-0.664,1.141c0,0.548,0.235,0.945,0.707,1.191
		c0.471,0.257,2.135,0.699,4.992,1.325c1.903,0.448,3.331,1.124,4.282,2.029c0.939,0.918,1.409,2.063,1.409,3.439
		c0,1.812-0.676,3.291-2.025,4.438c-1.351,1.146-3.438,1.719-6.262,1.719c-2.88,0-5.006-0.606-6.378-1.82
		c-1.373-1.213-2.059-2.76-2.059-4.639H106.361z"/>
	<path fill="#333333" d="M133.845,6.694c0.918,0.392,1.673,0.991,2.263,1.796c0.501,0.683,0.808,1.386,0.919,2.107
		c0.111,0.722,0.167,1.9,0.167,3.534v10.745h-4.882V13.743c0-0.985-0.166-1.78-0.499-2.385c-0.434-0.851-1.255-1.276-2.465-1.276
		c-1.254,0-2.206,0.422-2.855,1.268c-0.649,0.845-0.975,2.051-0.975,3.619v9.908h-4.78V0.235h4.78v8.723
		c0.691-1.062,1.49-1.803,2.397-2.223s1.862-0.629,2.864-0.629C131.904,6.106,132.926,6.302,133.845,6.694z"/>
	<path fill="#333333" d="M176.173,8.556c1.491,1.577,2.237,3.892,2.237,6.944c0,3.221-0.729,5.676-2.187,7.364
		c-1.458,1.688-3.335,2.533-5.632,2.533c-1.463,0-2.679-0.364-3.646-1.091c-0.529-0.402-1.047-0.989-1.553-1.761v9.528h-4.731V6.593
		h4.58v2.701c0.518-0.794,1.069-1.42,1.654-1.879c1.068-0.816,2.341-1.225,3.815-1.225C172.86,6.19,174.681,6.979,176.173,8.556z
		 M172.503,11.994c-0.649-1.084-1.703-1.627-3.161-1.627c-1.751,0-2.954,0.822-3.609,2.466c-0.339,0.872-0.508,1.979-0.508,3.321
		c0,2.125,0.57,3.618,1.71,4.479c0.678,0.504,1.48,0.756,2.407,0.756c1.344,0,2.37-0.515,3.076-1.544
		c0.706-1.028,1.06-2.398,1.06-4.109C173.478,14.326,173.152,13.079,172.503,11.994z"/>
	<path fill="#333333" d="M193.696,6.963c1.275,0.571,2.328,1.473,3.159,2.705c0.749,1.086,1.235,2.347,1.457,3.78
		c0.129,0.84,0.182,2.05,0.158,3.629h-13.317c0.073,1.834,0.711,3.12,1.911,3.858c0.73,0.459,1.609,0.688,2.637,0.688
		c1.089,0,1.974-0.279,2.655-0.839c0.37-0.302,0.698-0.722,0.983-1.258h4.881c-0.129,1.085-0.72,2.187-1.772,3.305
		c-1.638,1.778-3.931,2.667-6.879,2.667c-2.434,0-4.581-0.75-6.44-2.25c-1.861-1.5-2.79-3.939-2.79-7.32
		c0-3.167,0.84-5.596,2.519-7.286c1.679-1.69,3.859-2.535,6.538-2.535C190.987,6.106,192.421,6.392,193.696,6.963z M186.544,11.093
		c-0.676,0.697-1.101,1.64-1.273,2.831h8.236c-0.087-1.269-0.512-2.232-1.273-2.889s-1.707-0.986-2.836-0.986
		C188.17,10.048,187.22,10.397,186.544,11.093z"/>
	<path fill="#333333" d="M205.124,19.039c0.101,0.851,0.32,1.455,0.657,1.812c0.595,0.637,1.696,0.956,3.303,0.956
		c0.944,0,1.694-0.14,2.251-0.419c0.555-0.279,0.834-0.699,0.834-1.259c0-0.536-0.224-0.944-0.672-1.225
		c-0.448-0.279-2.116-0.76-5.002-1.442c-2.077-0.514-3.541-1.157-4.392-1.929c-0.85-0.76-1.274-1.856-1.274-3.288
		c0-1.689,0.664-3.14,1.991-4.354c1.329-1.213,3.197-1.82,5.606-1.82c2.287,0,4.15,0.456,5.59,1.367
		c1.44,0.912,2.267,2.486,2.479,4.723h-4.78c-0.067-0.615-0.241-1.102-0.521-1.459c-0.527-0.648-1.425-0.973-2.691-0.973
		c-1.044,0-1.786,0.163-2.229,0.486c-0.442,0.325-0.665,0.705-0.665,1.141c0,0.548,0.236,0.945,0.707,1.191
		c0.472,0.257,2.135,0.699,4.992,1.325c1.904,0.448,3.332,1.124,4.283,2.029C216.53,16.82,217,17.966,217,19.342
		c0,1.812-0.675,3.291-2.025,4.438c-1.351,1.146-3.438,1.719-6.261,1.719c-2.88,0-5.007-0.606-6.38-1.82
		c-1.372-1.213-2.059-2.76-2.059-4.639H205.124z"/>
</g>
<g>
	<path fill="#333333" d="M145.903,6.619h5.434l6.427,18.258h-18.298L145.903,6.619z M145.587,20.917h5.886l-2.903-9.044
		L145.587,20.917z"/>
</g>
</svg>
